solid OpenSCAD_Model
  facet normal -1 0 0
    outer loop
      vertex 0 0 0
      vertex 0 0 2
      vertex 0 15 0
    endloop
  endfacet
  facet normal -1 0 0
    outer loop
      vertex 0 15 0
      vertex 0 0 2
      vertex 0 15 2
    endloop
  endfacet
  facet normal 0 -1 0
    outer loop
      vertex 0 0 2
      vertex 0 0 0
      vertex 17 0 0
    endloop
  endfacet
  facet normal 0 -1 0
    outer loop
      vertex 7 0 2
      vertex 0 0 2
      vertex 17 0 0
    endloop
  endfacet
  facet normal 0 -1 0
    outer loop
      vertex 10 0 2
      vertex 7 0 2
      vertex 17 0 0
    endloop
  endfacet
  facet normal 0 -1 0
    outer loop
      vertex 17 0 2
      vertex 10 0 2
      vertex 17 0 0
    endloop
  endfacet
  facet normal 0 -1 0
    outer loop
      vertex 10 0 13.4502
      vertex 7 0 2
      vertex 10 0 2
    endloop
  endfacet
  facet normal 0 -1 0
    outer loop
      vertex 7 0 13.4502
      vertex 7 0 2
      vertex 10 0 13.4502
    endloop
  endfacet
  facet normal 0 -1 0
    outer loop
      vertex 7 0 14.9
      vertex 7 0 2
      vertex 7 0 13.4502
    endloop
  endfacet
  facet normal 0 0 -1
    outer loop
      vertex 8.96352 11.4266 0
      vertex 0 15 0
      vertex 17 15 0
    endloop
  endfacet
  facet normal 0 0 -1
    outer loop
      vertex 0 0 0
      vertex 0 15 0
      vertex 7 3.5 0
    endloop
  endfacet
  facet normal 0 0 -1
    outer loop
      vertex 10 3.5 0
      vertex 17 0 0
      vertex 8.96352 2.07341 0
    endloop
  endfacet
  facet normal 0 0 -1
    outer loop
      vertex 7.28647 2.61832 0
      vertex 7 3.5 0
      vertex 7.28647 3.5 0
    endloop
  endfacet
  facet normal 0 0 -1
    outer loop
      vertex 0 0 0
      vertex 7 3.5 0
      vertex 7.28647 2.61832 0
    endloop
  endfacet
  facet normal 0 0 -1
    outer loop
      vertex 0 0 0
      vertex 7.28647 2.61832 0
      vertex 8.96352 2.07341 0
    endloop
  endfacet
  facet normal 0 0 -1
    outer loop
      vertex 0 0 0
      vertex 8.96352 2.07341 0
      vertex 17 0 0
    endloop
  endfacet
  facet normal 0 0 -1
    outer loop
      vertex 10 10 0
      vertex 17 0 0
      vertex 10 3.5 0
    endloop
  endfacet
  facet normal 0 0 -1
    outer loop
      vertex 8.96352 11.4266 0
      vertex 17 15 0
      vertex 10 10 0
    endloop
  endfacet
  facet normal 0 0 -1
    outer loop
      vertex 17 0 0
      vertex 10 10 0
      vertex 17 15 0
    endloop
  endfacet
  facet normal 0 0 -1
    outer loop
      vertex 7.28647 10.8817 0
      vertex 0 15 0
      vertex 8.96352 11.4266 0
    endloop
  endfacet
  facet normal 0 0 -1
    outer loop
      vertex 7.28647 10 0
      vertex 7 10 0
      vertex 7.28647 10.8817 0
    endloop
  endfacet
  facet normal 0 0 -1
    outer loop
      vertex 7 10 0
      vertex 0 15 0
      vertex 7.28647 10.8817 0
    endloop
  endfacet
  facet normal 0 0 -1
    outer loop
      vertex 7 3.5 0
      vertex 0 15 0
      vertex 7 10 0
    endloop
  endfacet
  facet normal 0 1 0
    outer loop
      vertex 0 15 0
      vertex 0 15 2
      vertex 17 15 0
    endloop
  endfacet
  facet normal 0 1 0
    outer loop
      vertex 17 15 0
      vertex 0 15 2
      vertex 17 15 2
    endloop
  endfacet
  facet normal 0 0 1
    outer loop
      vertex 0 15 2
      vertex 0 0 2
      vertex 7 0 2
    endloop
  endfacet
  facet normal 0 0 1
    outer loop
      vertex 7 3.5 2
      vertex 0 15 2
      vertex 7 2 2
    endloop
  endfacet
  facet normal 0 0 1
    outer loop
      vertex 7 2 2
      vertex 0 15 2
      vertex 7 0 2
    endloop
  endfacet
  facet normal 0 0 1
    outer loop
      vertex 7.28647 10 2
      vertex 7.28647 10.8817 2
      vertex 7 10 2
    endloop
  endfacet
  facet normal 0 0 1
    outer loop
      vertex 17 0 2
      vertex 10 2 2
      vertex 10 0 2
    endloop
  endfacet
  facet normal 0 0 1
    outer loop
      vertex 7.28647 2.61832 2
      vertex 7 3.5 2
      vertex 7 2 2
    endloop
  endfacet
  facet normal 0 0 1
    outer loop
      vertex 7.28647 10.8817 2
      vertex 0 15 2
      vertex 7 10 2
    endloop
  endfacet
  facet normal 0 0 1
    outer loop
      vertex 10 10 2
      vertex 10 3.5 2
      vertex 17 0 2
    endloop
  endfacet
  facet normal 0 0 1
    outer loop
      vertex 17 15 2
      vertex 0 15 2
      vertex 7.28647 10.8817 2
    endloop
  endfacet
  facet normal 0 0 1
    outer loop
      vertex 8.96352 11.4266 2
      vertex 10 10 2
      vertex 17 15 2
    endloop
  endfacet
  facet normal 0 0 1
    outer loop
      vertex 17 15 2
      vertex 7.28647 10.8817 2
      vertex 8.96352 11.4266 2
    endloop
  endfacet
  facet normal 0 0 1
    outer loop
      vertex 17 15 2
      vertex 10 10 2
      vertex 17 0 2
    endloop
  endfacet
  facet normal 0 0 1
    outer loop
      vertex 17 0 2
      vertex 10 3.5 2
      vertex 10 2 2
    endloop
  endfacet
  facet normal 0 0 1
    outer loop
      vertex 10 2 2
      vertex 8.96352 2.07341 2
      vertex 7 2 2
    endloop
  endfacet
  facet normal 0 0 1
    outer loop
      vertex 8.96352 2.07341 2
      vertex 7.28647 2.61832 2
      vertex 7 2 2
    endloop
  endfacet
  facet normal 0 0 1
    outer loop
      vertex 7.28647 2.61832 2
      vertex 7.28647 3.5 2
      vertex 7 3.5 2
    endloop
  endfacet
  facet normal 0 0 1
    outer loop
      vertex 10 3.5 2
      vertex 8.96352 2.07341 2
      vertex 10 2 2
    endloop
  endfacet
  facet normal 0 0 1
    outer loop
      vertex 7 3.5 2
      vertex 7 10 2
      vertex 0 15 2
    endloop
  endfacet
  facet normal -1 0 0
    outer loop
      vertex 7 0 2
      vertex 7 0 14.9
      vertex 7 2 2
    endloop
  endfacet
  facet normal -1 0 0
    outer loop
      vertex 7 2 2
      vertex 7 0 14.9
      vertex 7 2 14.9
    endloop
  endfacet
  facet normal -1 0 -2.22045e-16
    outer loop
      vertex 7 2.56667 18.6867
      vertex 7 4.43333 18.6867
      vertex 7 0.913822 17.8192
    endloop
  endfacet
  facet normal -1 0 -2.22045e-16
    outer loop
      vertex 7 0.913822 17.8192
      vertex 7 4.43333 18.6867
      vertex 7 6.08618 17.8192
    endloop
  endfacet
  facet normal -1 0 -2.22045e-16
    outer loop
      vertex 7 0.913822 17.8192
      vertex 7 6.08618 17.8192
      vertex 7 7.14656 16.283
    endloop
  endfacet
  facet normal -1 0 -2.22045e-16
    outer loop
      vertex 7 0.913822 17.8192
      vertex 7 7.14656 16.283
      vertex 7 7.37156 14.4299
    endloop
  endfacet
  facet normal -1 0 -2.22045e-16
    outer loop
      vertex 7 0.913822 17.8192
      vertex 7 7.37156 14.4299
      vertex 7 6.70964 12.6845
    endloop
  endfacet
  facet normal -1 0 -2.22045e-16
    outer loop
      vertex 7 0.913822 17.8192
      vertex 7 6.70964 12.6845
      vertex 7 5.31242 11.4467
    endloop
  endfacet
  facet normal -1 0 -2.22045e-16
    outer loop
      vertex 7 0.913822 17.8192
      vertex 7 5.31242 11.4467
      vertex 7 3.5 11
    endloop
  endfacet
  facet normal -1 0 -2.22045e-16
    outer loop
      vertex 7 2 14.9
      vertex 7 3.5 11
      vertex 7 2 11.3697
    endloop
  endfacet
  facet normal -1 0 -2.22045e-16
    outer loop
      vertex 7 0.913822 17.8192
      vertex 7 3.5 11
      vertex 7 2 14.9
    endloop
  endfacet
  facet normal -1 0 -2.22045e-16
    outer loop
      vertex 7 0 14.9
      vertex 7 0 13.4502
      vertex 7 -0.371565 14.4299
    endloop
  endfacet
  facet normal -1 0 -2.22045e-16
    outer loop
      vertex 7 0 14.9
      vertex 7 -0.371565 14.4299
      vertex 7 0.913822 17.8192
    endloop
  endfacet
  facet normal -1 0 -2.22045e-16
    outer loop
      vertex 7 0.913822 17.8192
      vertex 7 -0.371565 14.4299
      vertex 7 -0.146563 16.283
    endloop
  endfacet
  facet normal -1 0 -2.22045e-16
    outer loop
      vertex 7 0 14.9
      vertex 7 0.913822 17.8192
      vertex 7 2 14.9
    endloop
  endfacet
  facet normal 7.87381e-17 -0.935016 -0.354605
    outer loop
      vertex 29 -0.371565 14.4299
      vertex 7 -0.371565 14.4299
      vertex 7 0 13.4502
    endloop
  endfacet
  facet normal 7.87381e-17 -0.935016 -0.354605
    outer loop
      vertex 10 0.290363 12.6845
      vertex 29 -0.371565 14.4299
      vertex 10 0 13.4502
    endloop
  endfacet
  facet normal 7.87381e-17 -0.935016 -0.354605
    outer loop
      vertex 10 0 13.4502
      vertex 29 -0.371565 14.4299
      vertex 7 0 13.4502
    endloop
  endfacet
  facet normal 7.87381e-17 -0.935016 -0.354605
    outer loop
      vertex 29 0.290363 12.6845
      vertex 29 -0.371565 14.4299
      vertex 10 0.290363 12.6845
    endloop
  endfacet
  facet normal 1 0 0
    outer loop
      vertex 10 0 13.4502
      vertex 10 0 2
      vertex 10 2 2
    endloop
  endfacet
  facet normal 1 0 0
    outer loop
      vertex 10 0.290363 12.6845
      vertex 10 0 13.4502
      vertex 10 2 2
    endloop
  endfacet
  facet normal 1 0 0
    outer loop
      vertex 10 2 11.3697
      vertex 10 1.68758 11.4467
      vertex 10 2 2
    endloop
  endfacet
  facet normal 1 0 0
    outer loop
      vertex 10 1.68758 11.4467
      vertex 10 0.290363 12.6845
      vertex 10 2 2
    endloop
  endfacet
  facet normal 1 0 0
    outer loop
      vertex 17 0 2
      vertex 17 0 0
      vertex 17 15 0
    endloop
  endfacet
  facet normal 1 0 0
    outer loop
      vertex 17 15 2
      vertex 17 0 2
      vertex 17 15 0
    endloop
  endfacet
  facet normal 1 0 0
    outer loop
      vertex 7 10 0
      vertex 7 10 2
      vertex 7 3.5 2
    endloop
  endfacet
  facet normal 1 0 0
    outer loop
      vertex 7 3.5 0
      vertex 7 10 0
      vertex 7 3.5 2
    endloop
  endfacet
  facet normal 0 -1 0
    outer loop
      vertex 7.28647 10 0
      vertex 7.28647 10 2
      vertex 7 10 2
    endloop
  endfacet
  facet normal 0 -1 0
    outer loop
      vertex 7 10 0
      vertex 7.28647 10 0
      vertex 7 10 2
    endloop
  endfacet
  facet normal 1 0 0
    outer loop
      vertex 7.28647 10.8817 0
      vertex 7.28647 10.8817 2
      vertex 7.28647 10 2
    endloop
  endfacet
  facet normal 1 0 0
    outer loop
      vertex 7.28647 10 0
      vertex 7.28647 10.8817 0
      vertex 7.28647 10 2
    endloop
  endfacet
  facet normal 0.309017 -0.951056 0
    outer loop
      vertex 8.96352 11.4266 0
      vertex 8.96352 11.4266 2
      vertex 7.28647 10.8817 2
    endloop
  endfacet
  facet normal 0.309017 -0.951056 0
    outer loop
      vertex 7.28647 10.8817 0
      vertex 8.96352 11.4266 0
      vertex 7.28647 10.8817 2
    endloop
  endfacet
  facet normal -0.809017 -0.587785 0
    outer loop
      vertex 10 10 2
      vertex 8.96352 11.4266 2
      vertex 10 10 0
    endloop
  endfacet
  facet normal -0.809017 -0.587785 0
    outer loop
      vertex 10 10 0
      vertex 8.96352 11.4266 2
      vertex 8.96352 11.4266 0
    endloop
  endfacet
  facet normal -1 0 0
    outer loop
      vertex 10 10 2
      vertex 10 10 0
      vertex 10 3.5 2
    endloop
  endfacet
  facet normal -1 0 0
    outer loop
      vertex 10 3.5 2
      vertex 10 10 0
      vertex 10 3.5 0
    endloop
  endfacet
  facet normal -0.809017 0.587785 0
    outer loop
      vertex 10 3.5 2
      vertex 10 3.5 0
      vertex 8.96352 2.07341 2
    endloop
  endfacet
  facet normal -0.809017 0.587785 0
    outer loop
      vertex 8.96352 2.07341 2
      vertex 10 3.5 0
      vertex 8.96352 2.07341 0
    endloop
  endfacet
  facet normal 0.309017 0.951056 0
    outer loop
      vertex 8.96352 2.07341 2
      vertex 8.96352 2.07341 0
      vertex 7.28647 2.61832 2
    endloop
  endfacet
  facet normal 0.309017 0.951056 0
    outer loop
      vertex 7.28647 2.61832 2
      vertex 8.96352 2.07341 0
      vertex 7.28647 2.61832 0
    endloop
  endfacet
  facet normal 1 0 0
    outer loop
      vertex 7.28647 3.5 0
      vertex 7.28647 3.5 2
      vertex 7.28647 2.61832 2
    endloop
  endfacet
  facet normal 1 0 0
    outer loop
      vertex 7.28647 2.61832 0
      vertex 7.28647 3.5 0
      vertex 7.28647 2.61832 2
    endloop
  endfacet
  facet normal 0 1 0
    outer loop
      vertex 7.28647 3.5 2
      vertex 7.28647 3.5 0
      vertex 7 3.5 2
    endloop
  endfacet
  facet normal 0 1 0
    outer loop
      vertex 7 3.5 2
      vertex 7.28647 3.5 0
      vertex 7 3.5 0
    endloop
  endfacet
  facet normal 0 1 0
    outer loop
      vertex 7 2 2
      vertex 7 2 11.3697
      vertex 10 2 2
    endloop
  endfacet
  facet normal 0 1 0
    outer loop
      vertex 7 2 2
      vertex 7 2 14.9
      vertex 7 2 11.3697
    endloop
  endfacet
  facet normal 0 1 0
    outer loop
      vertex 10 2 11.3697
      vertex 10 2 2
      vertex 7 2 11.3697
    endloop
  endfacet
  facet normal -1.96611e-16 -0.464723 0.885456
    outer loop
      vertex 29 2.56667 18.6867
      vertex 7 2.56667 18.6867
      vertex 7 0.913822 17.8192
    endloop
  endfacet
  facet normal -1.96611e-16 -0.464723 0.885456
    outer loop
      vertex 29 0.913822 17.8192
      vertex 29 2.56667 18.6867
      vertex 7 0.913822 17.8192
    endloop
  endfacet
  facet normal -1.26136e-16 -0.822984 0.568065
    outer loop
      vertex 7 0 16.4953
      vertex 7 0.913822 17.8192
      vertex 7 -0.146563 16.283
    endloop
  endfacet
  facet normal -1.26136e-16 -0.822984 0.568065
    outer loop
      vertex 29 -0.146563 16.283
      vertex 29 0.913822 17.8192
      vertex 7 -0.146563 16.283
    endloop
  endfacet
  facet normal -1.26136e-16 -0.822984 0.568065
    outer loop
      vertex 10 0 16.4953
      vertex 7 0 16.4953
      vertex 7 -0.146563 16.283
    endloop
  endfacet
  facet normal -1.26136e-16 -0.822984 0.568065
    outer loop
      vertex 7 0.27935 16.9
      vertex 7 0.913822 17.8192
      vertex 7 0 16.4953
    endloop
  endfacet
  facet normal -1.26136e-16 -0.822984 0.568065
    outer loop
      vertex 29 0.913822 17.8192
      vertex 7 0.913822 17.8192
      vertex 7 0.27935 16.9
    endloop
  endfacet
  facet normal -1.26136e-16 -0.822984 0.568065
    outer loop
      vertex 29 0.913822 17.8192
      vertex 7 0.27935 16.9
      vertex 10 0.27935 16.9
    endloop
  endfacet
  facet normal -1.26136e-16 -0.822984 0.568065
    outer loop
      vertex 29 0.913822 17.8192
      vertex 10 0 16.4953
      vertex 7 -0.146563 16.283
    endloop
  endfacet
  facet normal -1.26136e-16 -0.822984 0.568065
    outer loop
      vertex 10 0.27935 16.9
      vertex 10 0 16.4953
      vertex 29 0.913822 17.8192
    endloop
  endfacet
  facet normal -2.67646e-17 -0.992709 0.120537
    outer loop
      vertex 29 -0.146563 16.283
      vertex 7 -0.146563 16.283
      vertex 7 -0.371565 14.4299
    endloop
  endfacet
  facet normal -2.67646e-17 -0.992709 0.120537
    outer loop
      vertex 29 -0.371565 14.4299
      vertex 29 -0.146563 16.283
      vertex 7 -0.371565 14.4299
    endloop
  endfacet
  facet normal 2.15592e-16 -0.239315 -0.970942
    outer loop
      vertex 7 2 11.3697
      vertex 7 3.5 11
      vertex 10 2 11.3697
    endloop
  endfacet
  facet normal 2.15592e-16 -0.239315 -0.970942
    outer loop
      vertex 10 2 11.3697
      vertex 7 3.5 11
      vertex 29 3.5 11
    endloop
  endfacet
  facet normal 2.15592e-16 -0.239315 -0.970942
    outer loop
      vertex 10 2 11.3697
      vertex 29 3.5 11
      vertex 29 1.68758 11.4467
    endloop
  endfacet
  facet normal 2.15592e-16 -0.239315 -0.970942
    outer loop
      vertex 10 2 11.3697
      vertex 29 1.68758 11.4467
      vertex 10 1.68758 11.4467
    endloop
  endfacet
  facet normal 2.15592e-16 0.239315 -0.970942
    outer loop
      vertex 7 5.31242 11.4467
      vertex 29 5.31242 11.4467
      vertex 7 3.5 11
    endloop
  endfacet
  facet normal 2.15592e-16 0.239315 -0.970942
    outer loop
      vertex 7 3.5 11
      vertex 29 5.31242 11.4467
      vertex 29 3.5 11
    endloop
  endfacet
  facet normal 1.66203e-16 0.663123 -0.748511
    outer loop
      vertex 7 6.70964 12.6845
      vertex 29 6.70964 12.6845
      vertex 7 5.31242 11.4467
    endloop
  endfacet
  facet normal 1.66203e-16 0.663123 -0.748511
    outer loop
      vertex 7 5.31242 11.4467
      vertex 29 6.70964 12.6845
      vertex 29 5.31242 11.4467
    endloop
  endfacet
  facet normal 7.87381e-17 0.935016 -0.354605
    outer loop
      vertex 7 7.37156 14.4299
      vertex 29 7.37156 14.4299
      vertex 7 6.70964 12.6845
    endloop
  endfacet
  facet normal 7.87381e-17 0.935016 -0.354605
    outer loop
      vertex 7 6.70964 12.6845
      vertex 29 7.37156 14.4299
      vertex 29 6.70964 12.6845
    endloop
  endfacet
  facet normal -2.67646e-17 0.992709 0.120537
    outer loop
      vertex 7 7.14656 16.283
      vertex 29 7.14656 16.283
      vertex 7 7.37156 14.4299
    endloop
  endfacet
  facet normal -2.67646e-17 0.992709 0.120537
    outer loop
      vertex 7 7.37156 14.4299
      vertex 29 7.14656 16.283
      vertex 29 7.37156 14.4299
    endloop
  endfacet
  facet normal -1.26136e-16 0.822984 0.568065
    outer loop
      vertex 7 6.08618 17.8192
      vertex 29 6.08618 17.8192
      vertex 7 7.14656 16.283
    endloop
  endfacet
  facet normal -1.26136e-16 0.822984 0.568065
    outer loop
      vertex 7 7.14656 16.283
      vertex 29 6.08618 17.8192
      vertex 29 7.14656 16.283
    endloop
  endfacet
  facet normal -1.96611e-16 0.464723 0.885456
    outer loop
      vertex 7 6.08618 17.8192
      vertex 7 4.43333 18.6867
      vertex 29 4.43333 18.6867
    endloop
  endfacet
  facet normal -1.96611e-16 0.464723 0.885456
    outer loop
      vertex 29 6.08618 17.8192
      vertex 7 6.08618 17.8192
      vertex 29 4.43333 18.6867
    endloop
  endfacet
  facet normal -2.22045e-16 0 1
    outer loop
      vertex 7 4.43333 18.6867
      vertex 7 2.56667 18.6867
      vertex 29 2.56667 18.6867
    endloop
  endfacet
  facet normal -2.22045e-16 0 1
    outer loop
      vertex 29 4.43333 18.6867
      vertex 7 4.43333 18.6867
      vertex 29 2.56667 18.6867
    endloop
  endfacet
  facet normal 1 0 2.22045e-16
    outer loop
      vertex 29 4.43333 18.6867
      vertex 29 2.56667 18.6867
      vertex 29 0.913822 17.8192
    endloop
  endfacet
  facet normal 1 0 2.22045e-16
    outer loop
      vertex 29 -0.371565 14.4299
      vertex 29 4.43333 18.6867
      vertex 29 -0.146563 16.283
    endloop
  endfacet
  facet normal 1 0 2.22045e-16
    outer loop
      vertex 29 -0.146563 16.283
      vertex 29 4.43333 18.6867
      vertex 29 0.913822 17.8192
    endloop
  endfacet
  facet normal 1 0 2.22045e-16
    outer loop
      vertex 29 0.290363 12.6845
      vertex 29 4.43333 18.6867
      vertex 29 -0.371565 14.4299
    endloop
  endfacet
  facet normal 1 0 2.22045e-16
    outer loop
      vertex 29 1.68758 11.4467
      vertex 29 4.43333 18.6867
      vertex 29 0.290363 12.6845
    endloop
  endfacet
  facet normal 1 0 2.22045e-16
    outer loop
      vertex 29 3.5 11
      vertex 29 4.43333 18.6867
      vertex 29 1.68758 11.4467
    endloop
  endfacet
  facet normal 1 0 2.22045e-16
    outer loop
      vertex 29 5.31242 11.4467
      vertex 29 4.43333 18.6867
      vertex 29 3.5 11
    endloop
  endfacet
  facet normal 1 0 2.22045e-16
    outer loop
      vertex 29 6.70964 12.6845
      vertex 29 4.43333 18.6867
      vertex 29 5.31242 11.4467
    endloop
  endfacet
  facet normal 1 0 2.22045e-16
    outer loop
      vertex 29 7.37156 14.4299
      vertex 29 4.43333 18.6867
      vertex 29 6.70964 12.6845
    endloop
  endfacet
  facet normal 1 0 2.22045e-16
    outer loop
      vertex 29 7.14656 16.283
      vertex 29 4.43333 18.6867
      vertex 29 7.37156 14.4299
    endloop
  endfacet
  facet normal 1 0 2.22045e-16
    outer loop
      vertex 29 6.08618 17.8192
      vertex 29 4.43333 18.6867
      vertex 29 7.14656 16.283
    endloop
  endfacet
  facet normal 1.66203e-16 -0.663123 -0.748511
    outer loop
      vertex 10 0.290363 12.6845
      vertex 10 1.68758 11.4467
      vertex 29 0.290363 12.6845
    endloop
  endfacet
  facet normal 1.66203e-16 -0.663123 -0.748511
    outer loop
      vertex 29 0.290363 12.6845
      vertex 10 1.68758 11.4467
      vertex 29 1.68758 11.4467
    endloop
  endfacet
  facet normal -1 0 0
    outer loop
      vertex 7 0.27935 16.9
      vertex 7 0 16.4953
      vertex 7 0 16.9
    endloop
  endfacet
  facet normal 0 -1 0
    outer loop
      vertex 7 0 16.9
      vertex 7 0 16.4953
      vertex 10 0 16.4953
    endloop
  endfacet
  facet normal 0 -1 0
    outer loop
      vertex 10 0 16.9
      vertex 7 0 16.9
      vertex 10 0 16.4953
    endloop
  endfacet
  facet normal 1 0 0
    outer loop
      vertex 10 0 16.9
      vertex 10 0 16.4953
      vertex 10 0.27935 16.9
    endloop
  endfacet
  facet normal 0 0 1
    outer loop
      vertex 7 0.27935 16.9
      vertex 7 0 16.9
      vertex 10 0 16.9
    endloop
  endfacet
  facet normal 0 0 1
    outer loop
      vertex 10 0.27935 16.9
      vertex 7 0.27935 16.9
      vertex 10 0 16.9
    endloop
  endfacet
endsolid OpenSCAD_Model
